<svg xmlns="http://www.w3.org/2000/svg" version="1.1" xmlns:xlink="http://www.w3.org/1999/xlink" xmlns:svgjs="http://svgjs.com/svgjs" width="40" height="40" x="0" y="0" viewBox="0 0 15 15" style="enable-background:new 0 0 512 512" xml:space="preserve" class=""><g><g fill="#1d2b64"><path d="m7.5 4.5c-.55228 0-1-.44772-1-1s.44772-1 1-1 1 .44772 1 1-.44772 1-1 1z" fill="#1d2b64" data-original="#000000" class=""></path><path d="m6.5 11.5c0 .5523.44772 1 1 1s1-.4477 1-1-.44772-1-1-1-1 .4477-1 1z" fill="#1d2b64" data-original="#000000" class=""></path><path clip-rule="evenodd" d="m2 7.5c0-.27614.22386-.5.5-.5h10c.2761 0 .5.22386.5.5s-.2239.5-.5.5h-10c-.27614 0-.5-.22386-.5-.5z" fill-rule="evenodd" fill="#1d2b64" data-original="#000000" class=""></path></g></g></svg>